<svg width="140" height="50" viewBox="0 0 140 50" fill="none" xmlns="http://www.w3.org/2000/svg">
<g clip-path="url(#clip0_45_124)">
<rect width="140" height="50" fill="#FF6C00"/>
<path d="M26.512 26.912C26.512 24.896 26.112 23.248 25.312 21.968C24.512 20.656 23.296 20 21.664 20C21.216 20 20.736 20.032 20.224 20.096C19.712 20.128 19.28 20.16 18.928 20.192V32.576C19.312 32.832 19.824 33.04 20.464 33.2C21.104 33.36 21.744 33.44 22.384 33.44C23.792 33.44 24.832 32.88 25.504 31.76C26.176 30.608 26.512 28.992 26.512 26.912ZM32.512 26.72C32.512 28.448 32.32 30.048 31.936 31.52C31.552 32.96 30.992 34.208 30.256 35.264C29.52 36.288 28.592 37.088 27.472 37.664C26.352 38.24 25.056 38.528 23.584 38.528C22.08 38.528 20.528 38.16 18.928 37.424V45.92H13.024V16.16C14.112 15.808 15.44 15.52 17.008 15.296C18.608 15.072 20.176 14.96 21.712 14.96C25.2 14.96 27.872 16.016 29.728 18.128C31.584 20.24 32.512 23.104 32.512 26.72ZM35.488 26.912C35.488 24.928 35.792 23.184 36.4 21.68C37.008 20.176 37.808 18.928 38.8 17.936C39.792 16.912 40.928 16.144 42.208 15.632C43.488 15.12 44.8 14.864 46.144 14.864C49.472 14.864 52 15.856 53.728 17.84C55.456 19.792 56.32 22.656 56.32 26.432C56.32 26.816 56.304 27.216 56.272 27.632C56.272 28.048 56.256 28.384 56.224 28.64H41.584C41.584 30.112 42.192 31.28 43.408 32.144C44.624 32.976 46.192 33.392 48.112 33.392C49.296 33.392 50.416 33.264 51.472 33.008C52.56 32.752 53.472 32.496 54.208 32.24L55.024 37.28C54 37.632 52.912 37.92 51.76 38.144C50.608 38.4 49.312 38.528 47.872 38.528C45.952 38.528 44.224 38.288 42.688 37.808C41.184 37.296 39.888 36.56 38.8 35.6C37.744 34.608 36.928 33.392 36.352 31.952C35.776 30.512 35.488 28.832 35.488 26.912ZM50.608 24.56C50.608 23.952 50.528 23.376 50.368 22.832C50.208 22.256 49.952 21.744 49.6 21.296C49.248 20.848 48.8 20.496 48.256 20.24C47.712 19.952 47.04 19.808 46.24 19.808C45.472 19.808 44.8 19.936 44.224 20.192C43.68 20.448 43.216 20.8 42.832 21.248C42.48 21.696 42.192 22.208 41.968 22.784C41.776 23.36 41.648 23.952 41.584 24.56H50.608ZM64.864 20.336H59.728V15.44H64.864V9.776L70.768 8.816V15.44H80.224V20.336H70.768V29.456C70.768 30.288 70.848 30.96 71.008 31.472C71.168 31.984 71.392 32.384 71.68 32.672C71.968 32.96 72.32 33.152 72.736 33.248C73.152 33.344 73.616 33.392 74.128 33.392C74.672 33.392 75.168 33.376 75.616 33.344C76.096 33.312 76.544 33.264 76.96 33.2C77.408 33.104 77.856 32.976 78.304 32.816C78.784 32.656 79.296 32.448 79.84 32.192L80.656 37.28C79.568 37.728 78.384 38.048 77.104 38.24C75.856 38.432 74.64 38.528 73.456 38.528C72.08 38.528 70.864 38.416 69.808 38.192C68.752 37.968 67.856 37.536 67.12 36.896C66.384 36.256 65.824 35.36 65.44 34.208C65.056 33.024 64.864 31.488 64.864 29.6V20.336ZM88.672 38V20.336H83.728V15.44H88.672V14.144C88.672 12.32 88.928 10.816 89.44 9.632C89.984 8.416 90.704 7.456 91.6 6.752C92.496 6.016 93.52 5.504 94.672 5.216C95.824 4.896 97.008 4.736 98.224 4.736C99.472 4.736 100.752 4.848 102.064 5.072C103.376 5.296 104.56 5.664 105.616 6.176L104.608 10.976C103.872 10.72 102.944 10.464 101.824 10.208C100.736 9.92 99.696 9.776 98.704 9.776C98.16 9.776 97.632 9.824 97.12 9.92C96.64 10.016 96.208 10.224 95.824 10.544C95.472 10.864 95.184 11.328 94.96 11.936C94.736 12.512 94.624 13.28 94.624 14.24V15.44H103.888V20.336H94.624V38H88.672ZM128.656 15.44C128.048 17.552 127.456 19.632 126.88 21.68C126.336 23.696 125.76 25.68 125.152 27.632C124.544 29.552 123.888 31.44 123.184 33.296C122.512 35.152 121.776 36.96 120.976 38.72C120.368 40 119.76 41.104 119.152 42.032C118.576 42.96 117.92 43.712 117.184 44.288C116.48 44.896 115.68 45.344 114.784 45.632C113.92 45.92 112.896 46.064 111.712 46.064C110.72 46.064 109.808 45.984 108.976 45.824C108.176 45.664 107.504 45.456 106.96 45.2L108.064 40.256C108.704 40.544 109.264 40.736 109.744 40.832C110.256 40.96 110.8 41.024 111.376 41.024C112.528 41.024 113.456 40.64 114.16 39.872C114.864 39.104 115.424 38.192 115.84 37.136C114.432 34.32 113.024 31.104 111.616 27.488C110.208 23.84 108.928 19.824 107.776 15.44H113.92C114.208 16.624 114.528 17.888 114.88 19.232C115.264 20.576 115.664 21.92 116.08 23.264C116.496 24.608 116.928 25.936 117.376 27.248C117.856 28.528 118.336 29.728 118.816 30.848C119.136 29.728 119.472 28.528 119.824 27.248C120.176 25.936 120.512 24.624 120.832 23.312C121.152 21.968 121.456 20.624 121.744 19.28C122.064 17.936 122.352 16.656 122.608 15.44H128.656Z" fill="white"/>
</g>
<defs>
<clipPath id="clip0_45_124">
<rect width="140" height="50" fill="white"/>
</clipPath>
</defs>
</svg>
